<svg width="1440" height="524" viewBox="0 0 1440 524" fill="none" xmlns="http://www.w3.org/2000/svg">
<g filter="url(#filter0_f_214_2268)">
<path fill-rule="evenodd" clip-rule="evenodd" d="M-420.594 97.2407C-325.561 45.4214 -214.13 3.62781 -117.174 26.3286C-65.858 38.3437 -21.2152 67.8534 11.7823 117.071C43.8462 164.897 63.3614 228.879 71.3702 308.884C101.13 606.172 170.099 735.67 244.45 788.317C316.847 839.58 413.04 831.039 541.197 793.599C592.321 778.664 636.805 745.492 682.234 697.408C728.759 648.163 770.367 590.153 821.64 525.755C921.273 400.618 1047.18 265.445 1263.74 234.997C1466.54 206.485 1622.38 229.298 1728.76 260.256C1781.85 275.707 1822.42 293.126 1850.2 307.025C1864.09 313.974 1874.78 320.044 1882.25 324.55C1885.98 326.803 1888.91 328.666 1891.03 330.053C1892.09 330.746 1892.95 331.321 1893.6 331.766C1893.93 331.989 1894.21 332.179 1894.43 332.336C1894.55 332.414 1894.65 332.485 1894.74 332.546C1894.78 332.576 1894.82 332.605 1894.86 332.631C1894.88 332.644 1894.9 332.662 1894.91 332.669C1894.93 332.687 1894.96 332.703 1864.92 375.282L1894.96 332.704C1919.33 349.895 1925.15 383.588 1907.96 407.957C1890.77 432.312 1857.11 438.137 1832.75 420.984L1832.75 420.985C1832.75 420.989 1832.77 421.004 1832.79 421.013C1832.81 421.031 1832.83 421.046 1832.85 421.059C1832.89 421.085 1832.92 421.104 1832.93 421.114C1832.92 421.106 1832.9 421.091 1832.87 421.072C1832.73 420.979 1832.4 420.757 1831.88 420.416C1830.84 419.733 1829.03 418.574 1826.45 417.02C1821.3 413.912 1813.1 409.226 1801.88 403.611C1779.43 392.382 1744.92 377.441 1698.58 363.954C1606.09 337.037 1465.65 315.672 1278.78 341.945C1105.67 366.284 1002.4 472.116 906.13 593.026C859.452 651.652 811.428 717.926 760.739 771.577C708.954 826.389 648.64 874.726 571.482 897.266C443.077 934.778 299.873 959.895 182.038 876.457C66.1573 794.403 -5.94207 620.839 -36.0928 319.641C-43.0617 250.024 -59.1494 205.216 -77.923 177.213C-95.7634 150.603 -117.194 137.245 -141.795 131.485C-196.673 118.636 -276.457 141.658 -368.891 192.06C-449.02 235.753 -528.743 294.44 -592.87 346.542C-589.467 356.358 -586.957 366.645 -585.456 377.321C-572.96 466.194 -634.876 548.368 -723.748 560.863C-812.62 573.359 -894.795 511.443 -907.29 422.571C-919.785 333.699 -857.87 251.524 -768.998 239.029C-729.606 233.491 -691.532 242.573 -660.256 262.139C-593.47 207.918 -508.325 145.078 -420.594 97.2407Z" fill="#CBFF08"/>
</g>
<defs>
<filter id="filter0_f_214_2268" x="-928.893" y="0" width="2866.73" height="952.232" filterUnits="userSpaceOnUse" color-interpolation-filters="sRGB">
<feFlood flood-opacity="0" result="BackgroundImageFix"/>
<feBlend mode="normal" in="SourceGraphic" in2="BackgroundImageFix" result="shape"/>
<feGaussianBlur stdDeviation="10" result="effect1_foregroundBlur_214_2268"/>
</filter>
</defs>
</svg>
