<svg width="773" height="475" viewBox="0 0 773 475" fill="none" xmlns="http://www.w3.org/2000/svg">
<path d="M157.332 278.054C151.348 281.589 129.383 260.294 123.69 240.018C122.92 237.327 122.453 234.678 122.4 234.417C120.942 224.049 121.882 213.484 125.147 203.529C132.937 181.271 153.605 170.096 161.367 165.897C173.267 159.761 186.22 155.913 199.547 154.554C206.97 153.506 214.467 153.07 221.961 153.253C216.676 147.262 213.172 139.921 211.841 132.054C210.943 125.786 211.43 119.398 213.268 113.335C215.106 107.273 218.251 101.683 222.482 96.9564C227.502 91.4791 233.927 87.4712 241.063 85.3654C248.2 83.2596 255.777 83.136 262.977 85.008C282.223 90.6063 293.577 110.983 291.183 129.42C290.252 135.094 288.199 140.528 285.144 145.406C282.089 150.284 278.092 154.51 273.385 157.837C282.595 160.452 292.448 163.648 302.759 167.638C317.671 173.427 340.954 184.614 354.863 192.5L325.863 221.5C303.752 214.755 283.634 207.587 270.676 203.89C263.477 201.837 255.916 199.903 248.642 198.609C242.078 197.521 235.441 196.916 228.786 196.801C220.808 196.265 212.798 196.451 204.853 197.356C197.51 197.973 190.322 199.806 183.583 202.778C177.982 205.37 171.863 208 166.863 212C161.863 216 157.926 221.997 155.363 228C145.699 251.427 163 274.742 157.332 278.054Z" fill="#FDFFFF"/>
<path d="M165.409 239.167C165.271 241.814 165.444 244.468 165.923 247.076C167.191 253.64 177.566 293.898 216.494 312.446C239.542 323.479 260.848 321.225 274.867 319.762C304.33 316.677 325.319 304.418 341.833 294.531C356.129 285.989 366.465 277.052 387.097 259.216C398.502 249.33 406.225 241.183 439.727 210.219L445.984 204.405C458.38 193.095 472.319 180.243 486.457 169.605C499.32 159.448 513.202 150.648 527.88 143.346C540.734 136.512 554.686 131.975 569.105 129.94C581.585 127.695 594.427 128.564 606.489 132.471C612.508 134.607 628.467 140.38 636.823 154.459C650.367 177.395 634.605 206.857 639.12 208.479C642.486 209.665 652.941 194.163 657.812 176.644C662.865 161.169 662.516 144.44 656.822 129.189C651.886 117.569 643.945 107.47 633.814 99.9245C621.124 89.8581 605.9 83.4815 589.817 81.4959C595.854 74.8514 599.939 66.6734 601.625 57.8608C603.311 49.0482 602.531 39.942 599.371 31.5432C596.212 23.1443 590.795 15.7779 583.716 10.2534C576.636 4.72894 568.169 1.26027 559.244 0.22859C557.066 -0.0482328 534.058 -2.22332 518.296 15.3747C501.703 33.8823 507.723 58.045 508.673 61.8019C510.366 68.4245 513.281 74.6741 517.267 80.2304C502.397 88.101 488.045 96.9114 474.299 106.608C452.327 122.081 431.545 139.173 412.125 157.741C410.026 159.718 398.344 171.661 374.979 195.587C346.229 224.97 340.526 230.941 329.081 239.878C313.914 251.742 302.113 260.798 283.579 266.374C269.826 271.129 255.124 272.486 240.73 270.329C233.998 269.222 209.802 265.188 194.12 246.087C182.239 231.653 182.239 217.021 176.299 217.337C171.072 217.574 166.003 229.438 165.409 239.167Z" fill="#FDFFFF"/>
<path d="M427.256 221.962C433.537 224.846 474.142 235.952 480.756 237.962C497.832 243.064 517.501 244.186 535.323 244.195C552.893 244.008 568.183 243.813 584.789 234.862C594.392 229.714 608.996 222.364 613.944 207.561C616.438 200.176 616.421 191.276 619.026 191C621.632 190.724 623.182 196.613 623.863 198.001C629.679 213.586 622.559 234.102 618.327 242.561C598.683 281.993 535.506 286.94 526.316 287.913C481.574 291.761 407.922 266.251 390.756 256.462" fill="#FDFFFF"/>
<path d="M449.637 229.038L426.637 221.5L390.137 256.5C392.637 258 399.859 260.846 406.137 263.5L449.637 229.038Z" fill="#FDFFFF"/>
<path d="M41.772 445.3C16.032 445.3 3.55199 433.99 3.55199 414.23H20.712C22.142 426.45 27.732 432.04 42.162 432.04C56.202 432.04 62.312 426.06 62.312 417.48C62.312 411.11 58.802 406.95 44.632 404.87L32.802 403.18C13.432 400.45 5.89199 393.69 5.89199 378.61C5.89199 361.97 17.722 350.14 41.772 350.14C65.822 350.14 77.652 361.84 77.652 379.91H60.882C59.712 368.99 53.732 363.4 41.382 363.4C29.032 363.4 23.572 369.12 23.572 377.57C23.572 383.94 26.562 387.19 38.912 388.88L50.742 390.57C69.592 393.3 79.992 400.45 79.992 416.44C79.992 433.73 67.512 445.3 41.772 445.3ZM105.68 444H88.0002V351.44H105.68V444ZM195.002 418.39C195.002 433.21 184.082 444 164.322 444H117.392V351.44H161.722C181.482 351.44 192.402 361.32 192.402 376.14C192.402 386.28 187.332 393.95 176.932 396.42C189.022 398.76 195.002 407.34 195.002 418.39ZM177.322 417.09C177.322 408.77 172.252 403.31 162.372 403.31H135.072V430.74H162.372C172.252 430.74 177.322 425.41 177.322 417.09ZM174.722 377.57C174.722 369.25 169.652 364.7 159.772 364.7H135.072V390.31H159.772C169.652 390.31 174.722 385.89 174.722 377.57ZM233.445 445.3C211.605 445.3 199.385 431.65 199.385 410.46C199.385 389.79 211.085 375.62 232.665 375.62C254.375 375.62 266.075 389.92 266.075 409.68C266.075 411.11 265.945 412.41 265.815 413.97H216.155C216.675 427.62 223.175 433.86 233.445 433.86C241.765 433.86 247.225 429.7 249.175 422.81H264.645C261.785 436.59 251.515 445.3 233.445 445.3ZM232.665 387.06C223.435 387.06 217.585 392.39 216.155 403.05H249.305C247.875 392.39 241.895 387.06 232.665 387.06ZM289.915 444H273.145V376.92H289.135V391.87C292.645 380.04 298.495 376.01 307.855 376.01C309.675 376.01 312.405 376.53 313.965 376.92V391.61L307.075 391.48C296.805 391.48 289.915 399.15 289.915 412.8V444ZM344.681 445.3C326.611 445.3 315.171 432.43 315.171 410.46C315.171 388.49 326.611 375.62 344.681 375.62C354.821 375.62 361.581 379.78 365.351 387.06V351.44H382.121V444H366.131V432.56C362.491 440.36 355.861 445.3 344.681 445.3ZM348.581 432.56C358.591 432.56 365.351 425.8 365.351 410.46C365.351 395.12 358.591 388.36 348.581 388.36C338.701 388.36 331.941 395.12 331.941 410.46C331.941 425.8 338.701 432.56 348.581 432.56ZM413.304 445.3C397.574 445.3 389.124 437.37 389.124 425.02C389.124 414.75 395.234 406.56 412.134 405.26L425.784 404.09C432.544 403.44 434.494 401.62 434.494 398.11C434.494 391.48 430.464 387.58 422.144 387.58C414.344 387.58 410.054 390.96 409.404 398.11H392.764C392.764 384.46 401.344 375.62 422.014 375.62C442.684 375.62 451.264 384.46 451.264 398.11V426.84C451.264 435.94 452.044 441.79 453.344 444H438.134C436.184 441.53 435.274 438.8 435.274 433.6C431.504 441.27 424.744 445.3 413.304 445.3ZM418.244 433.86C428.644 433.86 434.494 425.93 434.494 416.18V411.5C433.324 412.93 430.204 413.71 425.654 414.1L417.724 414.75C409.274 415.53 405.894 419.04 405.894 423.85C405.894 429.83 409.664 433.86 418.244 433.86ZM553.412 444H537.292V402.4C537.292 393.43 534.302 389.27 527.802 389.27C520.782 389.27 515.192 395.12 515.192 406.04V444H498.942V402.4C498.942 393.43 495.952 389.27 489.582 389.27C482.562 389.27 476.972 395.12 476.972 406.04V444H460.852V376.92H476.842V387.84C480.092 380.69 485.812 375.62 495.042 375.62C504.792 375.62 510.902 379.78 513.632 388.23C517.012 380.43 523.642 375.62 532.872 375.62C546.652 375.62 553.412 383.42 553.412 399.67V444ZM600.429 445.3C590.289 445.3 583.529 441.14 579.759 433.86V469.48H562.989V376.92H578.979V388.36C582.619 380.56 589.119 375.62 600.429 375.62C618.499 375.62 629.939 388.49 629.939 410.46C629.939 432.43 618.499 445.3 600.429 445.3ZM596.399 432.56C606.409 432.56 613.169 425.8 613.169 410.46C613.169 395.12 606.409 388.36 596.399 388.36C586.519 388.36 579.759 395.12 579.759 410.46C579.759 425.8 586.519 432.56 596.399 432.56ZM658.521 445.3C642.791 445.3 634.341 437.37 634.341 425.02C634.341 414.75 640.451 406.56 657.351 405.26L671.001 404.09C677.761 403.44 679.711 401.62 679.711 398.11C679.711 391.48 675.681 387.58 667.361 387.58C659.561 387.58 655.271 390.96 654.621 398.11H637.981C637.981 384.46 646.561 375.62 667.231 375.62C687.901 375.62 696.481 384.46 696.481 398.11V426.84C696.481 435.94 697.261 441.79 698.561 444H683.351C681.401 441.53 680.491 438.8 680.491 433.6C676.721 441.27 669.961 445.3 658.521 445.3ZM663.461 433.86C673.861 433.86 679.711 425.93 679.711 416.18V411.5C678.541 412.93 675.421 413.71 670.871 414.1L662.941 414.75C654.491 415.53 651.111 419.04 651.111 423.85C651.111 429.83 654.881 433.86 663.461 433.86ZM772.11 444H752.74L733.11 415.14L722.84 425.28V444H706.07V351.44H722.84V406.17L751.31 376.92H770.81L744.42 403.44L772.11 444Z" fill="#FDFFFF"/>
</svg>
